<?xml version="1.0" encoding="UTF-8" standalone="no"?>
<svg
   xmlns:dc="http://purl.org/dc/elements/1.1/"
   xmlns:cc="http://creativecommons.org/ns#"
   xmlns:rdf="http://www.w3.org/1999/02/22-rdf-syntax-ns#"
   xmlns:svg="http://www.w3.org/2000/svg"
   xmlns="http://www.w3.org/2000/svg"
   xmlns:sodipodi="http://sodipodi.sourceforge.net/DTD/sodipodi-0.dtd"
   xmlns:inkscape="http://www.inkscape.org/namespaces/inkscape"
   version="1.1"
   viewBox="0 0 128 128"
   xml:space="preserve"
   x="0px"
   y="0px"
   id="svg3580"
   inkscape:version="0.91 r13725"
   sodipodi:docname="theme-engine.svg"
   width="128"
   height="128"><metadata
     id="metadata3592"><rdf:RDF><cc:Work
         rdf:about=""><dc:format>image/svg+xml</dc:format><dc:type
           rdf:resource="http://purl.org/dc/dcmitype/StillImage" /><dc:title></dc:title></cc:Work></rdf:RDF></metadata><defs
     id="defs3590" /><sodipodi:namedview
     pagecolor="#ffffff"
     bordercolor="#666666"
     borderopacity="1"
     objecttolerance="10"
     gridtolerance="10"
     guidetolerance="10"
     inkscape:pageopacity="0"
     inkscape:pageshadow="2"
     inkscape:window-width="1500"
     inkscape:window-height="937"
     id="namedview3588"
     showgrid="false"
     inkscape:zoom="2.6700352"
     inkscape:cx="188.40885"
     inkscape:cy="-5.3613217"
     inkscape:window-x="-8"
     inkscape:window-y="-8"
     inkscape:window-maximized="1"
     inkscape:current-layer="svg3580" /><path
     d="m 84.77148,3.7013244 c -0.133043,-0.018488 -0.238689,0.00486 -0.376903,0.041871 L 73.590057,6.6327756 C 73.037189,6.780902 72.730086,7.3363069 72.878131,7.8891151 l 1.716998,6.5329659 c -4.885601,2.62944 -9.012255,6.628426 -11.725836,11.683961 l -6.49109,-1.716996 c -0.552916,-0.148155 -1.108202,0.15907 -1.256339,0.711928 l -2.889582,10.762642 c -0.148136,0.552859 0.159008,1.150061 0.711929,1.298219 l 6.532964,1.716996 c -0.176978,5.733831 1.355717,11.278304 4.271555,15.997392 l -4.774091,4.774091 c -0.404621,0.404741 -0.404712,1.061016 0,1.46573 l 7.91494,7.91494 c 0.404714,0.404733 1.060988,0.404707 1.465731,0 l 4.77409,-4.774091 c 2.33017,1.438719 4.882635,2.563183 7.663671,3.308361 2.781456,0.745288 5.596044,1.044197 8.333721,0.963193 l 1.716998,6.532967 c 0.148165,0.552869 0.745357,0.860081 1.298216,0.711927 l 10.762644,-2.889583 c 0.55286,-0.148136 0.85994,-0.703511 0.71192,-1.256339 l -1.71699,-6.532967 c 4.88356,-2.628982 9.01271,-6.630712 11.72583,-11.683958 l 6.4911,1.716998 c 0.5529,0.148145 1.1082,-0.159069 1.25633,-0.711927 l 2.88959,-10.80452 c 0.14813,-0.552873 -0.15902,-1.108194 -0.71193,-1.25634 l -6.53298,-1.716997 c 0.17764,-5.733993 -1.35623,-11.277959 -4.27154,-15.997393 l 4.77407,-4.774089 c 0.40461,-0.404733 0.40472,-1.061018 0,-1.465729 l -7.91493,-7.91494 c -0.40472,-0.404702 -1.06097,-0.404715 -1.46572,0 l -4.73222,4.774088 c -2.33131,-1.439964 -4.922847,-2.56274 -7.705544,-3.30836 -2.78118,-0.745216 -5.596379,-1.044085 -8.33372,-0.963195 L 85.650918,4.4551258 C 85.539796,4.0404738 85.170632,3.7568047 84.77148,3.7013208 Z m 2.680192,16.6255636 c 1.912227,-0.07621 3.87521,0.106777 5.821041,0.628169 10.377757,2.780715 16.558557,13.450845 13.777857,23.828576 C 104.26986,55.161371 93.599754,61.342205 83.221995,58.561489 72.844235,55.780776 66.663436,45.110664 69.444135,34.732917 71.703459,26.301011 79.165356,20.657116 87.451672,20.326888 Z M 43.228514,52.196036 c -0.399366,0.05508 -0.76828,0.33923 -0.879435,0.753804 l -1.716998,6.532968 C 35.086295,59.317168 29.470607,60.732926 24.59281,63.754362 L 19.860598,58.98027 c -0.404763,-0.404763 -1.061019,-0.404712 -1.46573,0 l -7.91494,7.914942 c -0.404721,0.404721 -0.404762,1.060964 0,1.465728 l 4.774091,4.774091 c -3.020189,4.877158 -4.437196,10.452619 -4.271554,15.99739 l -6.5329666,1.717 C 3.8967197,90.997639 3.5894258,91.59479 3.7375729,92.147637 l 2.8895815,10.762643 c 0.1481341,0.55286 0.7034613,0.86003 1.2563399,0.71193 l 6.4910867,-1.717 c 1.298632,2.41105 2.989499,4.66461 5.025357,6.70047 2.036168,2.03618 4.289086,3.72668 6.70048,5.02536 l -1.716997,6.49109 c -0.148117,0.55289 0.159068,1.10821 0.711924,1.25634 l 10.762645,2.88958 c 0.552847,0.14814 1.149999,-0.15914 1.298216,-0.71192 l 1.716999,-6.53298 c 5.54378,0.16503 11.121145,-1.25185 15.997392,-4.27155 l 4.774091,4.7741 c 0.404762,0.40478 1.061006,0.40471 1.465729,0 l 7.914941,-7.91495 c 0.404712,-0.4047 0.404762,-1.06096 0,-1.46572 l -4.774091,-4.73221 c 3.020816,-4.876978 4.436567,-10.49448 4.271553,-16.039273 l 6.532967,-1.716997 c 0.552766,-0.148208 0.860073,-0.703491 0.711926,-1.25634 L 72.878131,73.595691 c -0.148146,-0.552852 -0.703449,-0.860055 -1.25634,-0.711928 l -6.491087,1.716999 c -1.298996,-2.412714 -2.988282,-4.663403 -5.025359,-6.700477 -2.035963,-2.035965 -4.289418,-3.726739 -6.700478,-5.02536 l 1.716997,-6.49109 C 55.26999,55.830946 54.962778,55.275653 54.409938,55.127496 L 43.647295,52.237915 c -0.13821,-0.03703 -0.285657,-0.06023 -0.418781,-0.04187 z M 39.752642,68.77972 c 4.978721,-7.09e-4 9.93746,1.896873 13.73598,5.695407 7.597046,7.597046 7.597026,19.958691 0,27.555713 -7.597033,7.59704 -19.916794,7.55515 -27.513839,-0.0419 -7.597044,-7.597048 -7.597032,-19.874925 0,-27.471962 3.798512,-3.798511 8.799139,-5.736574 13.777859,-5.737285 z"
     style="fill:#000000;fill-opacity:1;fill-rule:evenodd;stroke:none"
     id="path3582"
     inkscape:connector-curvature="0" /><g
     id="g3679"
     style="fill:#ff6600"><g
       transform="matrix(-0.3125094,-0.08373664,-0.08373664,0.3125094,139.98896,27.032697)"
       id="g3488"
       style="display:inline;fill:#ff6600"><path
         style="fill:#ff6600"
         inkscape:connector-curvature="0"
         d="m 126.68024,129.95309 c -1.672,0.086 -2.405,-0.729 -2.405,-0.729 l -8.318,-8.316 17.328,-18.532 -18.66,17.197 -15.266001,-15.265 7.849001,-8.878001 -9.220001,7.506001 -2.382,-2.383 c 0,0 -1.435,-1.182001 -1.306,-2.833001 0.129,-1.649 1.032,-2.591 1.032,-2.591 l 22.502001,-22.504 33.815,33.817001 -22.673,22.673 c -10e-4,0 -0.624,0.753 -2.296,0.838 z"
         id="path3460" /><rect
         style="fill:#ff6600"
         x="134.76454"
         y="-41.831936"
         transform="matrix(0.70710678,0.70710678,-0.70710678,0.70710678,0,0)"
         width="47.822544"
         height="6.6899357"
         id="rect3462" /><path
         style="fill:#ff6600"
         inkscape:connector-curvature="0"
         d="m 156.00124,77.141089 c 0.101,-4.143 9.396,-3.003 14.208,-7.815 4.812,-4.813 13.695,-16.5 13.849,-17.871 0.155,-1.371 1.124,-4.834 -2.477,-8.566 -3.604,-3.732 -8.76,-2.67 -8.76,-2.67 0,0 -12.263,8.035 -18.182,13.951 -5.337,5.338 -3.144,14.452 -6.888,14.517 -3.744,0.065 -14.904,-11.072 -17.376,-8.601 -2.472,2.469 -3.822,3.82 -3.822,3.82 l 33.813,33.817 c 0,0 0.442,-0.438 3.823,-3.821 3.385,-3.385 -8.292,-12.62 -8.188,-16.761 z"
         id="path3464" /></g></g><g
     transform="matrix(-0.23465838,0.08540866,0.08540866,0.23465838,47.202796,72.282339)"
     id="g3654"
     style="fill:#ff6600"><path
       inkscape:connector-curvature="0"
       id="path3628"
       d="m 4.744,4.743 c -6.325,6.325 -6.325,16.578 0,22.903 L 27.646,4.743 c -6.324,-6.325 -16.578,-6.325 -22.902,0 z"
       style="fill:#ff6600" /><path
       inkscape:connector-curvature="0"
       id="path3630"
       d="M 60.893,83.794 100,100 83.795,60.893 33.914,11.013 11.012,33.914 60.893,83.794 Z m 5.212,-10.148 c 2.082,-2.084 6.023,-1.517 6.893,-0.647 -0.868,-0.868 -1.436,-4.812 0.646,-6.894 2.082,-2.082 6.242,-2.822 6.242,-2.822 l 9.312,22.47 -3.446,3.446 -22.47,-9.311 c 0,10e-4 0.741,-4.159 2.823,-6.242 z"
       style="fill:#ff6600" /></g></svg>